<?xml version="1.0" encoding="UTF-8"?>
<svg id="Layer_1" xmlns="http://www.w3.org/2000/svg" version="1.1" viewBox="0 0 50 50">
  <!-- Generator: Adobe Illustrator 30.1.0, SVG Export Plug-In . SVG Version: 2.1.1 Build 136)  -->
  <defs>
    <style>
      .st0 {
        fill: #134e2e;
        fill-rule: evenodd;
      }
    </style>
  </defs>
  <path class="st0" d="M31.3,38.3c.6-1.1.2-2.4-.8-3-.3-.1-.5-.2-.8-.3-.8-.1-1.6.2-2.1.9v-.2c.6-.9,1.5-1.4,2.5-1.4.6,0,1.2.2,1.7.6,1,.7,1.3,2.1.8,3.2-.6,1.5-2.4,2.1-3.8,1.3h-.2c1,.3,2.2-.1,2.8-1.1M38.9,29.9c-.6-.2-1.2-.2-1.8-.2-.3-.3-.7-.5-1-.7,1-.1,2,0,3,.2,0,0,0,0,.1,0,4.3,1.1,7,5.5,5.8,9.9-.4,1.5-1.1,2.7-2.1,3.7.8-.9,1.4-2,1.7-3.2,1.1-4.2-1.4-8.4-5.5-9.6,0,0-.1,0-.2,0ZM37.9,34c-.8-2.1-2.8-4.1-6-4.6-1.4-.2-3-.2-4.8.2,1.7-.9,3.3-1.2,4.7-1.2,3.4.1,6.1,2.4,7.2,5.4,1,2.7.7,5.9-1.4,8.6-.6.7-1.3,1.4-2.2,2,1.3-1.5,2.5-3.3,2.9-5.3,0-.3.1-.5.1-.8.2-1.4,0-2.8-.6-4.3ZM20.3,22.7c1.5,3.4,4.2,4,6,5.2-.3.2-.6.4-1,.6-.6.5-1.2,1.1-1.7,1.7,0,0,0,0,0,0,0,0,0,0,0,.1-.4.6-.8,1.2-1,1.8h0c-1.6-1.5-2.8-3.3-3.1-6.4.7,1.5,2.1,2.9,3.1,3.5-1.6-2.9-2.2-5-2.3-6.5ZM11.5,29.9c.8,0,.9,0,3.8,1.4,2,1,4.4,2.7,6.3,4-.2,1-.2,1.9-.1,2.9-1.8-.5-3.6-1.2-5-2.1,0,0,1.6,2.1,5.1,3.9,0,0-5.9-.3-9.2-2.5-2.9-1.9-4.8-5-3.2-7,0,0-.2,2.1,4.2,5.5,0,0-4.2-6-1.8-6.2ZM6,15.7c1.4,1.2,2.2,2.7,2.4,4.3.2,1.3,0,2.7-.5,4,0,0-.2-2.9-1.3-4.7,0,0,.5,5.1.2,7.7-.3,2.6-1.2,2.4-1.8.3-.6-2.1-1.6-8.6,1.2-11.7ZM35.2,15.7s0,0,0,.1c0,0,0,0,0,0h0c.9,3.1,1.2,6.8-1.6,8-2.5,1.1-7,1.4-10.4-1.6,0,0,4.3.9,7.2-.5,0,0-6.3.2-9.9-3h0c1.4-1.1,2.3-2.8,2.5-5-1.4,2.2-4.9,5.8-8.9,6.2,1.6.4,3,.3,4.3-.1.5,3-.2,7.1-3.5,8.7,2.8-2.9,1.7-6.7,1.7-6.7-.7,4.6-2.9,5.8-4.1,5.8-1,0-1.8-1.1-2.3-2.6h0c-.7-1.9-.8-4.3-.1-5.3.7.4,1.8.9,3.2,1h0c-5.7-2.3-6.9-9.4-3-13.4-1.2,2.3.3,5.9.3,5.9-.6-5.6,6.5-10.5,14.8-5.5,0,0-3.4,1.2-4,4.8,2.9-4.8,9.4-4.7,12.2-.3-1.4-.5-4-1.1-6.6,0,2.9-.3,7.1.5,8.1,3.5h0ZM44.1,44.6c1.5-1.4,2.6-3.1,3.1-5.1,1.4-5.5-1.9-11.1-7.4-12.5-1.5-.4-3.1-.4-4.7,0h0s0,0,0,0h0s0,0,0,0h0s0,0,0,0h0s0,0,0,0h0s0,0,0,0h0s0,0,0,0h0s0,0,0,0h0s0,0,0,0h0s0,0,0,0h0s0,0,0,0h0s0,0,0,0h0s0,0,0,0h0s0,0,0,0h0s0,0,0,0h0s0,0,0,0h0s0,0,0,0h0s0,0,0,0h0s0,0,0,0h0s0,0,0,0h0s0,0,0,0h0s0,0,0,0h0s0,0,0,0h0s0,0,0,0h0s0,0,0,0h0s0,0,0,0h0s0,0,0,0h0s0,0,0,0c0,0,0,0,0,0h0s0,0,0,0h0s0,0,0,0h0s0,0,0,0h0s0,0,0,0h0s0,0,0,0h0s0,0,0,0h0s0,0,0,0h0s0,0,0,0h0s0,0,0,0h0s0,0,0,0h0s0,0,0,0h0s0,0,0,0c0,0,0,0,.1,0h0s0,0,0,0h0s0,0,0,0h0s0,0,0,0c0,0,0,0,0,0h0s0,0,0,0h0s0,0,0,0h0c0,0,.2,0,.2,0h0c.5-.1,1-.2,1.7-.3,1.5-2.7,2.9-5.5,4.2-8.4l.3-.7-.5-.6c-5.9-7.7-14.6-12-23.9-14.1-3.3-.7-6.7-1.2-10-1.4-1.4,0-2.9-.1-4.2,0h-1.2c0,0-.1,1.2-.1,1.2-.5,4.7-.6,9.6-.2,14.4,1.2-1.7,2.3-2.6,2.3-2.6-4.7,6.7-2.8,13.8.2,20.8.2.4.2.6.3,1.4,0,1.7,1.3,2.6,2.8,2.9,0,0,3.4,2.1,8,3h0s-3.3.2-6.7-1.3c1.1,1.9,2.3,3.8,3.6,5.6.8,1,1.7,2.1,2.6,2.9l.8.7.9-.6c2.2-1.5,4.2-3.1,6.1-4.8.3.4.7.8,1.1,1.1.8.7,1.7,1.2,2.7,1.6,2.3.9,5,1.2,7.3.2,1.2.3,2.4.3,3.6.1,1.4-.2,2.7-.6,3.9-1.4.5-.3,1.1-.7,1.5-1.2Z"/>
</svg>