<svg xmlns="http://www.w3.org/2000/svg" width="1443" height="433" viewBox="0 0 1443 433" version="1.1">
    <path d="M 8.254 1.250 C 7.253 2.512, 5.779 16.232, 3.983 41 C 2.242 65.024, 2.932 138.016, 4.901 137.993 C 5.230 137.989, 6.507 136.527, 7.738 134.743 C 11.306 129.571, 23.553 116.892, 21.012 121 C 19.821 122.925, 16.429 129.450, 13.474 135.500 C -7.110 177.644, -4.005 225.905, 23.517 291.594 C 26.616 298.992, 28.144 304.231, 28.551 308.858 C 28.873 312.511, 29.813 317.400, 30.640 319.722 C 32.780 325.730, 40.257 332.143, 48.174 334.760 C 51.653 335.910, 61.010 340.007, 68.968 343.865 C 81.405 349.894, 107.793 359.509, 117.368 361.501 C 122.472 362.562, 119.711 362.715, 110.500 361.879 C 98.186 360.763, 87.358 358.493, 75.500 354.541 C 70 352.708, 65.354 351.345, 65.175 351.513 C 64.678 351.978, 76.418 371.208, 84.396 382.996 C 97.064 401.712, 114.753 422.676, 124.172 430.137 L 128.014 433.179 138.257 425.912 C 152.112 416.083, 167.469 404.214, 179.311 394.182 L 189.129 385.864 193.465 389.861 C 205.264 400.737, 220.056 409.141, 234.170 412.987 C 249.438 417.148, 268.806 417.169, 281.602 413.039 C 287.119 411.258, 288.588 411.178, 296.931 412.205 C 303.972 413.072, 308.638 413.053, 316.621 412.125 C 339.314 409.488, 355.737 401.410, 371.002 385.379 C 383.051 372.724, 389.536 361.537, 394.240 345.289 C 396.148 338.699, 396.495 335.114, 396.495 322 C 396.495 308.815, 396.151 305.305, 394.196 298.500 C 384.246 263.875, 356.353 238.606, 321.341 232.500 C 312.044 230.879, 302.294 230.659, 294.750 231.901 C 292.137 232.331, 290 232.513, 290 232.306 C 290 230.761, 306.118 225.796, 315.210 224.540 L 319.920 223.889 326.339 212.195 C 335.280 195.902, 341.926 182.493, 351.641 161.140 L 359.995 142.781 353.625 134.640 C 325.313 98.461, 289.545 69.822, 244.425 47.207 C 194.265 22.066, 132.701 6.128, 66.050 1.029 C 46.385 -0.475, 9.510 -0.334, 8.254 1.250 M 126.669 47.525 C 111.544 50.392, 98.521 57.170, 88.500 67.391 C 78.295 77.800, 72.049 92.599, 72.015 106.450 C 71.996 114.026, 70.883 112.798, 67.980 102 C 64.984 90.854, 64.233 74.490, 66.397 67.519 L 67.943 62.538 65.547 65.519 C 60.891 71.312, 56.733 79.080, 53.653 87.739 C 50.701 96.039, 50.538 97.263, 50.572 111 C 50.603 123.996, 50.884 126.330, 53.278 133.500 C 56.577 143.380, 61.826 152.362, 68.819 160.089 C 74.380 166.235, 86.930 175.162, 92.672 177.057 C 96.675 178.378, 97.145 180.298, 93.250 179.415 C 83.555 177.217, 78.169 175.607, 73.295 173.452 C 70.246 172.103, 67.641 171, 67.506 171 C 67.370 171, 66.652 173.137, 65.910 175.750 C 62.737 186.916, 65.535 209.435, 71.808 223.209 C 75.516 231.352, 79.389 235.842, 84.750 238.214 C 88.817 240.012, 89.380 240.032, 94.494 238.545 C 106.875 234.945, 118.338 218.897, 123.030 198.593 C 124.245 193.334, 125.577 189.238, 125.989 189.493 C 126.401 189.748, 127.053 193.565, 127.438 197.977 C 128.776 213.326, 124.124 231.101, 115.959 241.836 L 111.901 247.172 115.082 245.336 C 126.327 238.847, 137.406 221.431, 140.562 205.280 C 142.061 197.610, 142.379 173.994, 141 172.687 C 140.725 172.427, 137.350 172.884, 133.500 173.705 C 123.726 175.787, 101.976 174.465, 103.570 171.886 C 103.872 171.399, 105.700 171, 107.633 171 C 111.890 171, 123.994 167.042, 131.793 163.101 C 147.960 154.930, 172.404 132.609, 179.948 119.129 C 181.959 115.535, 182.007 119.286, 180.054 127.508 C 177.473 138.376, 171.531 149.958, 165.050 156.753 L 160.089 161.954 165.795 166.045 C 181.858 177.565, 206.899 185.012, 235.869 186.886 L 247.500 187.638 243.580 189.403 C 234.127 193.661, 225.052 195.205, 209.500 195.200 C 201.250 195.198, 192.301 194.748, 189.614 194.201 L 184.727 193.207 187.614 195.578 C 192.646 199.712, 207.352 206.828, 215.453 209.051 C 232.446 213.713, 251.839 213.286, 268.719 207.879 C 277.418 205.092, 278.933 204.227, 284.027 199.133 C 292.187 190.973, 293.529 186.512, 293.394 168 C 293.304 155.791, 292.876 151.951, 290.688 143.699 C 287.268 130.800, 284.637 125.782, 278.214 119.913 C 267.445 110.070, 252.278 105.076, 230.680 104.261 C 223.080 103.974, 217.230 103.410, 217.680 103.007 C 219.132 101.711, 231.802 98.991, 239.372 98.351 C 247.107 97.697, 260.069 99.130, 268.420 101.561 C 271.126 102.349, 273.560 102.773, 273.829 102.504 C 274.098 102.235, 270.759 98.516, 266.409 94.240 C 246.776 74.937, 218.966 70.467, 194.282 82.646 C 186.364 86.552, 175.678 95.701, 170.869 102.691 C 169.185 105.138, 167.595 106.928, 167.336 106.669 C 166.480 105.814, 169.846 96.068, 173.115 89.936 C 174.881 86.622, 178.126 81.867, 180.325 79.368 C 184.579 74.536, 197.409 65, 199.657 65 C 203.018 65, 200.188 62.972, 190.250 58.259 C 172.807 49.987, 161.831 47.124, 145 46.457 C 138.208 46.188, 131.735 46.565, 126.669 47.525 M 484.509 128.250 C 484.127 129.364, 479.640 149.095, 477.062 161 C 476.526 163.475, 474.964 170.225, 473.590 176 C 471.437 185.053, 466.357 207.858, 464.012 219 C 461.917 228.952, 451.682 274.567, 449.987 281.500 C 448.051 289.426, 443 311.931, 443 312.634 C 443 312.835, 655.207 313, 914.570 313 L 1386.141 313 1400.458 300.004 C 1412.852 288.754, 1414.864 286.503, 1415.432 283.254 C 1416.117 279.335, 1417.393 273.543, 1421.988 253.500 C 1423.501 246.900, 1425.302 238.800, 1425.990 235.500 C 1426.677 232.200, 1427.842 227.025, 1428.577 224 C 1431.071 213.740, 1432.889 205.513, 1433.548 201.500 C 1433.910 199.300, 1434.836 195.241, 1435.607 192.480 C 1437.806 184.603, 1442.999 159.865, 1443 157.267 C 1443 156.589, 1438.377 150.964, 1432.727 144.767 C 1427.076 138.570, 1421.152 132.037, 1419.561 130.250 L 1416.669 127 950.803 127 C 579.006 127, 484.851 127.252, 484.509 128.250 M 27.457 140.500 C 22.671 147.981, 19.537 156.903, 17.427 169.053 C 15.353 181, 15.917 209.804, 18.505 224 C 20.541 235.171, 24.163 246.418, 26.589 249.098 C 35.093 258.495, 39.553 233.815, 37.087 191 C 36.438 179.725, 35.672 169.713, 35.386 168.750 C 35.100 167.787, 35.279 167, 35.785 167 C 38.304 167, 44.877 186.171, 47.613 201.500 L 48.327 205.500 50.082 198.500 C 52.307 189.626, 52.499 174.381, 50.485 166.460 C 48.215 157.530, 42.732 147.227, 36.678 140.512 L 31.279 134.525 27.457 140.500 M 492.571 143.404 C 491.707 146.376, 491 149.355, 491 150.024 C 491 150.692, 489.441 158.048, 487.535 166.370 C 485.629 174.691, 483.585 183.750, 482.993 186.500 C 482.401 189.250, 481.493 193.075, 480.975 195 C 480.457 196.925, 478.880 203.900, 477.469 210.500 C 476.058 217.100, 473.858 227, 472.579 232.500 C 471.300 238, 469.684 245.200, 468.989 248.500 C 468.293 251.800, 466.687 259, 465.420 264.500 C 464.152 270, 461.969 279.675, 460.568 286 C 459.167 292.325, 457.768 298.400, 457.459 299.500 C 456.898 301.498, 457.257 301.500, 919.759 301 L 1382.620 300.500 1393.203 291.168 C 1404.603 281.116, 1404.061 282.038, 1407.387 267 C 1408.178 263.425, 1409.551 257.125, 1410.439 253 C 1411.327 248.875, 1412.484 243.925, 1413.011 242 C 1413.808 239.081, 1416.987 224.744, 1421.103 205.500 C 1421.573 203.300, 1422.627 198.575, 1423.445 195 C 1426.123 183.289, 1428.049 174.619, 1429.619 167.206 L 1431.165 159.911 1422.332 150.208 C 1417.475 144.872, 1412.970 139.942, 1412.321 139.253 C 1411.381 138.253, 1318.659 138, 952.642 138 L 494.142 138 492.571 143.404 M 603.309 157.074 C 592.397 166.055, 592.884 165.140, 588.991 184 C 587.912 189.225, 586.131 196.875, 585.032 201 C 583.933 205.125, 583.027 209.497, 583.017 210.715 C 583.008 211.934, 581.572 214.556, 579.827 216.544 C 576.853 219.932, 576.731 220.366, 577.870 223.517 C 578.894 226.349, 578.758 228.228, 577.003 235.489 C 575.857 240.226, 574.528 245.992, 574.049 248.301 C 573.569 250.610, 572.429 255.650, 571.516 259.500 C 567.725 275.473, 567.420 273.263, 574.784 283.162 L 581.359 292 603.989 292 L 626.618 292 637.059 283.435 C 648.676 273.905, 647.337 276.389, 652.395 255 C 653.761 249.225, 655.837 240.450, 657.009 235.500 C 658.529 229.080, 659.893 225.709, 661.767 223.740 C 664.168 221.216, 664.292 220.697, 663.208 217.697 C 661.928 214.158, 662.263 211.992, 667.579 189.500 C 672.374 169.215, 673.008 165.837, 672.252 164.633 C 671.839 163.974, 669.037 160.187, 666.026 156.218 L 660.552 149 636.835 149 L 613.118 149 603.309 157.074 M 691.034 151.410 C 690.531 152.735, 689.410 157.122, 688.545 161.160 C 687.679 165.197, 686.336 171.419, 685.560 174.987 C 684.686 179.007, 684.513 181.699, 685.105 182.065 C 685.675 182.417, 684.633 188.582, 682.531 197.303 C 680.589 205.359, 679 212.441, 679 213.042 C 679 213.642, 677.875 215.608, 676.500 217.411 C 673.805 220.945, 673.321 223.921, 675.144 225.744 C 675.968 226.568, 675.997 227.674, 675.245 229.694 C 674.672 231.237, 673.434 236.100, 672.496 240.500 C 669.361 255.195, 668.105 259.362, 666.547 260.234 C 665.696 260.710, 665 261.984, 665 263.065 C 665 264.146, 664.289 267.836, 663.420 271.265 C 662.551 274.694, 661.464 279.075, 661.004 281 C 660.545 282.925, 659.723 286.188, 659.178 288.250 L 658.187 292 690.889 292 L 723.591 292 734.219 283.472 C 744.439 275.270, 744.890 274.743, 745.987 269.722 C 748.833 256.689, 751.086 246.886, 752.932 239.500 C 754.032 235.100, 754.947 230.621, 754.966 229.548 C 754.985 228.474, 756.381 226.171, 758.068 224.429 C 761.032 221.372, 761.088 221.147, 759.721 217.874 C 758.894 215.896, 758.618 213.655, 759.058 212.492 C 759.472 211.397, 760.781 206, 761.967 200.500 C 763.152 195, 764.989 187.115, 766.049 182.977 C 767.108 178.840, 768.383 173.273, 768.881 170.606 L 769.787 165.756 763.320 157.378 L 756.853 149 724.402 149 L 691.950 149 691.034 151.410 M 785.061 155.750 C 784.342 159.463, 782.693 166.528, 781.395 171.452 C 779.711 177.845, 779.358 180.603, 780.161 181.100 C 780.780 181.482, 784.824 190.504, 789.147 201.148 L 797.007 220.500 793.935 224.877 C 791.155 228.837, 790.977 229.531, 792.070 232.170 C 793.054 234.546, 792.961 236.515, 791.567 242.793 C 790.626 247.032, 789.438 251.534, 788.928 252.797 C 788.418 254.060, 788 256.198, 788 257.547 C 788 258.993, 787.420 260, 786.588 260 C 785.703 260, 784.915 261.586, 784.477 264.250 C 784.093 266.587, 782.745 272.550, 781.482 277.500 C 780.219 282.450, 778.911 287.738, 778.574 289.250 L 777.962 292 796.414 292 C 813.137 292, 814.910 291.836, 815.345 290.250 C 815.609 289.288, 816.334 286.025, 816.957 283 C 817.579 279.975, 818.490 275.925, 818.981 274 C 822.151 261.573, 822.240 260.994, 821.177 259.713 C 820.399 258.776, 820.473 257.028, 821.439 253.457 C 822.176 250.730, 823.359 245.800, 824.068 242.500 C 824.844 238.886, 826.531 234.984, 828.311 232.689 C 830.879 229.376, 831.117 228.552, 830.133 226.392 C 829.510 225.024, 829 223.121, 829 222.162 C 829 220.510, 855.267 189.216, 862.521 182.225 C 864.676 180.149, 866.156 177.588, 866.567 175.225 C 866.924 173.176, 868.293 166.848, 869.608 161.161 C 870.924 155.475, 872 150.413, 872 149.911 C 872 149.396, 863.967 149, 853.500 149 C 835.815 149, 835 149.086, 835 150.953 C 835 152.027, 834.602 153.940, 834.115 155.203 C 833.628 156.466, 832.479 160.875, 831.561 165 C 830.644 169.125, 829.430 174.251, 828.864 176.390 C 828.086 179.334, 828.139 180.468, 829.081 181.050 C 829.962 181.594, 828.623 183.761, 824.516 188.439 L 818.705 195.058 816.968 191.178 C 815.715 188.378, 813.739 186.429, 809.866 184.171 L 804.500 181.044 810.662 181.022 L 816.824 181 817.517 176.750 C 817.897 174.412, 818.855 170.025, 819.644 167 C 820.433 163.975, 821.681 158.688, 822.417 155.250 L 823.756 149 805.061 149 L 786.367 149 785.061 155.750 M 1014.155 153.250 C 1013.548 155.588, 1012.344 160.650, 1011.480 164.500 C 1010.616 168.350, 1009.456 173.483, 1008.901 175.908 C 1008.306 178.508, 1008.262 180.558, 1008.795 180.908 C 1009.736 181.525, 1025 219.059, 1025 220.756 C 1025 221.289, 1023.709 223.349, 1022.131 225.335 C 1019.525 228.614, 1019.355 229.291, 1020.275 232.737 C 1021.078 235.743, 1020.843 238.459, 1019.144 245.840 C 1017.965 250.961, 1017 256.001, 1017 257.040 C 1017 258.079, 1016.141 259.390, 1015.090 259.952 C 1013.898 260.590, 1012.916 262.577, 1012.477 265.237 C 1012.090 267.582, 1010.968 272.875, 1009.985 277 C 1009.001 281.125, 1007.907 286.188, 1007.553 288.250 L 1006.909 292 1025.341 292 L 1043.773 292 1044.281 289.250 C 1044.561 287.738, 1045.519 283.350, 1046.411 279.500 C 1050.003 263.995, 1050.713 260, 1049.876 260 C 1048.506 260, 1048.807 257.563, 1051.591 246.136 C 1053.454 238.491, 1054.896 234.744, 1056.719 232.811 C 1059.236 230.144, 1059.316 229.187, 1057.500 223.386 C 1056.969 221.690, 1058.952 218.826, 1067.538 208.886 C 1073.423 202.074, 1080.547 193.800, 1083.369 190.500 C 1086.191 187.200, 1089.714 183.329, 1091.199 181.897 C 1092.829 180.324, 1094.335 177.355, 1095.003 174.397 C 1095.612 171.704, 1096.506 167.925, 1096.992 166 C 1097.477 164.075, 1098.400 160.250, 1099.044 157.500 C 1099.687 154.750, 1100.424 151.702, 1100.681 150.728 C 1101.119 149.071, 1099.930 148.973, 1082.410 149.228 L 1063.671 149.500 1060.151 164.827 C 1057.629 175.808, 1056.953 180.353, 1057.767 180.856 C 1058.502 181.310, 1056.888 183.910, 1053.202 188.208 L 1047.500 194.858 1045.701 191.061 C 1044.430 188.377, 1042.379 186.421, 1038.701 184.382 L 1033.500 181.500 1039.225 181.201 C 1044.918 180.903, 1044.954 180.882, 1045.853 177.201 C 1046.694 173.752, 1050.541 156.315, 1051.578 151.250 L 1052.038 149 1033.649 149 L 1015.260 149 1014.155 153.250 M 1161.007 157.880 C 1152.478 164.987, 1150.382 167.268, 1149.812 170.062 C 1149.426 171.953, 1148.685 175.300, 1148.165 177.500 C 1147.645 179.700, 1146.505 184.650, 1145.631 188.500 C 1144.757 192.350, 1143.138 199.100, 1142.033 203.500 C 1140.928 207.900, 1140.016 212.175, 1140.007 213 C 1139.998 213.825, 1138.569 216.017, 1136.831 217.872 C 1134.169 220.712, 1133.855 221.538, 1134.836 223.108 C 1136.484 225.747, 1136.286 229.939, 1134.119 238.268 C 1133.085 242.246, 1131.443 248.988, 1130.470 253.250 C 1129.497 257.512, 1128.178 261, 1127.539 261 C 1126.871 261, 1125.407 265.563, 1124.092 271.750 C 1122.835 277.663, 1121.400 283.805, 1120.903 285.399 C 1120.406 286.994, 1120 289.366, 1120 290.671 L 1120 293.044 1138.712 292.772 L 1157.423 292.500 1159.177 284.500 C 1160.141 280.100, 1161.730 273.161, 1162.708 269.081 C 1163.953 263.883, 1164.152 261.551, 1163.373 261.291 C 1162.259 260.920, 1163.070 255.858, 1166.224 243.500 L 1167.500 238.500 1175.136 238.210 L 1182.773 237.920 1181.451 244.225 C 1180.724 247.692, 1179.650 251.790, 1179.065 253.330 C 1178.479 254.870, 1178 257.178, 1178 258.458 C 1178 259.738, 1177.421 261.008, 1176.713 261.280 C 1176.005 261.551, 1174.387 266.437, 1173.117 272.137 C 1171.848 277.837, 1170.402 283.805, 1169.904 285.399 C 1169.407 286.994, 1169 289.356, 1169 290.649 L 1169 293 1187.330 293 L 1205.660 293 1209.009 279.250 C 1210.851 271.688, 1212.314 263.925, 1212.260 262 C 1212.053 254.702, 1218.262 229.767, 1221.519 224.816 C 1223.536 221.748, 1223.775 220.652, 1222.944 218.268 C 1221.897 215.266, 1222.123 213.914, 1227.421 191.500 C 1228.850 185.450, 1230.681 177.392, 1231.489 173.594 L 1232.958 166.688 1226.328 157.844 L 1219.699 149 1195.600 149.068 L 1171.500 149.136 1161.007 157.880 M 1351.500 157.127 C 1344.909 162.474, 1341.283 166.136, 1340.863 167.870 C 1338.513 177.582, 1333.823 198.036, 1333.343 200.668 C 1332.827 203.497, 1333.739 205.108, 1341.883 215.739 C 1349.515 225.705, 1351 228.235, 1351 231.276 C 1351 234.605, 1351.280 234.962, 1354.348 235.538 C 1357.032 236.041, 1358.828 237.654, 1363.392 243.658 C 1367.121 248.563, 1368.895 251.755, 1368.532 252.900 C 1368.116 254.209, 1369.178 255.325, 1372.738 257.321 L 1377.500 259.991 1366.107 259.746 C 1352.835 259.460, 1351.829 258.840, 1353.637 252.065 C 1354.228 249.853, 1354.476 247.809, 1354.189 247.522 C 1353.902 247.235, 1347.307 247, 1339.533 247 C 1330.381 247, 1325.003 246.603, 1324.273 245.873 C 1323.040 244.640, 1323.131 244.356, 1318.528 263.776 L 1315.855 275.052 1322.178 283.520 L 1328.500 291.988 1352 291.947 L 1375.500 291.906 1385.500 283.659 C 1395.347 275.539, 1395.520 275.321, 1396.807 269.456 C 1397.526 266.180, 1398.498 261.925, 1398.967 260 C 1400.011 255.710, 1402.845 243.408, 1403.574 240 C 1404.005 237.986, 1402.407 235.275, 1395.344 226.044 C 1388.659 217.306, 1386.452 213.637, 1386.040 210.580 C 1385.567 207.068, 1385.085 206.454, 1382.141 205.611 C 1377.889 204.392, 1367.484 191.200, 1368.429 188.225 C 1368.894 186.759, 1367.985 185.771, 1364.262 183.699 L 1359.500 181.049 1370.581 181.024 C 1381.290 181.001, 1381.705 181.081, 1382.957 183.419 C 1383.956 185.287, 1383.995 186.576, 1383.126 189.069 C 1382.507 190.845, 1382 192.681, 1382 193.149 C 1382 193.617, 1388.330 194, 1396.066 194 C 1403.802 194, 1410.991 194.460, 1412.041 195.022 C 1413.669 195.893, 1414.042 195.634, 1414.564 193.272 C 1414.902 191.747, 1415.758 188.025, 1416.467 185 C 1421.191 164.846, 1421.270 165.484, 1412.777 155.114 L 1407.770 149 1384.635 149.008 L 1361.500 149.015 1351.500 157.127 M 501.689 150.750 C 501.453 151.162, 500.737 153.750, 500.098 156.500 C 495.099 178.001, 494.256 182.540, 495.157 183.097 C 495.779 183.482, 495.372 186.997, 494.055 192.604 C 492.905 197.497, 491.220 204.650, 490.309 208.500 C 489.398 212.350, 487.605 216.894, 486.325 218.597 C 484.378 221.187, 484.099 222.440, 484.621 226.254 C 485.341 231.505, 479.575 258.282, 477.217 260.640 C 475.922 261.935, 471.057 279.783, 469.521 288.874 L 468.824 293 501.472 293 L 534.119 293 542.810 285.866 C 547.589 281.942, 552.233 277.909, 553.128 276.905 C 554.607 275.246, 556.542 268.274, 560.594 250 C 562.008 243.627, 562.817 240.329, 564.840 232.691 C 565.602 229.816, 565.507 228.064, 564.453 225.542 C 563.131 222.377, 563.205 222.017, 565.882 218.648 C 568.583 215.249, 569.463 212.439, 573.602 194 C 574.404 190.425, 576.192 182.950, 577.575 177.390 L 580.089 167.279 573.795 158.716 L 567.500 150.152 534.809 150.076 C 516.829 150.034, 501.925 150.338, 501.689 150.750 M 923.103 152.250 C 922.636 153.488, 921.943 156.075, 921.561 158 C 921.180 159.925, 919.943 165.445, 918.812 170.267 C 917.682 175.089, 917 180.264, 917.297 181.767 C 917.853 184.584, 917.333 187.807, 914.516 199 C 913.616 202.575, 912.462 207.671, 911.952 210.324 C 911.410 213.141, 909.793 216.641, 908.064 218.738 C 905.802 221.483, 905.328 222.745, 906.053 224.098 C 907.380 226.578, 907.234 230.872, 905.591 237.669 C 904.817 240.876, 903.389 247.033, 902.418 251.352 C 901.447 255.671, 900.061 259.796, 899.338 260.520 C 898.614 261.243, 896.876 266.485, 895.476 272.168 C 894.076 277.850, 892.496 284.127, 891.965 286.116 C 889.813 294.179, 886.959 293.562, 923.773 293 L 956.548 292.500 966.575 284.300 L 976.602 276.100 979.387 263.800 C 980.919 257.035, 983.005 248.337, 984.023 244.471 C 986.638 234.534, 987.340 227.947, 986.121 224.783 C 985.225 222.457, 985.446 221.624, 987.648 219.006 C 990.461 215.663, 990.794 214.606, 995.375 194.500 C 996.252 190.650, 998.071 182.836, 999.417 177.135 L 1001.864 166.769 997.859 161.635 C 995.656 158.811, 992.712 155.037, 991.316 153.250 L 988.779 150 956.365 150 L 923.950 150 923.103 152.250 M 1248.682 160.750 C 1244.303 178.688, 1243.839 181.283, 1244.891 181.933 C 1245.792 182.489, 1242.501 199.669, 1239.980 207.571 C 1239.441 209.260, 1239 211.445, 1239 212.427 C 1239 213.409, 1237.655 215.911, 1236.010 217.987 C 1233.316 221.389, 1233.130 222.074, 1234.124 224.925 C 1235.252 228.162, 1234.834 230.645, 1228.976 255.500 C 1227.939 259.900, 1225.939 268.450, 1224.531 274.500 C 1223.124 280.550, 1221.579 286.937, 1221.097 288.694 C 1220.615 290.451, 1220.472 292.138, 1220.777 292.444 C 1221.083 292.750, 1235.388 293, 1252.567 293 L 1283.800 293 1293.897 284.838 C 1303.931 276.729, 1305.975 273.850, 1305.994 267.797 C 1305.997 266.860, 1306.407 265.060, 1306.905 263.797 C 1307.402 262.534, 1308.379 258.893, 1309.075 255.707 C 1309.771 252.521, 1311.164 248.964, 1312.170 247.804 C 1313.177 246.643, 1314 244.962, 1314 244.068 C 1314 243.174, 1315.342 237.280, 1316.983 230.971 C 1318.623 224.662, 1319.973 218.713, 1319.983 217.750 C 1319.999 216.146, 1318.467 216, 1301.659 216 L 1283.318 216 1282.098 221.750 C 1278.970 236.483, 1277.732 241.711, 1276.746 244.342 C 1275.928 246.525, 1275.986 247.373, 1276.997 247.998 C 1278.984 249.226, 1276.450 257.444, 1273.653 258.841 C 1272.469 259.433, 1266.899 260.048, 1261.275 260.208 L 1251.050 260.500 1256.350 257.822 L 1261.651 255.144 1263.913 244.822 C 1267.121 230.185, 1267.922 227.842, 1270.762 224.798 C 1273.086 222.306, 1273.181 221.851, 1271.978 218.947 C 1270.967 216.507, 1270.923 214.751, 1271.779 211.149 C 1272.387 208.592, 1274.111 200.988, 1275.610 194.250 C 1277.379 186.299, 1278.789 182, 1279.629 182 C 1280.341 182, 1281.326 180.313, 1281.819 178.250 C 1283.969 169.247, 1286.936 156.240, 1287.522 153.250 L 1288.159 150 1269.733 150 L 1251.307 150 1248.682 160.750 M 616 183.596 C 618.475 185.010, 620.594 186.262, 620.710 186.377 C 620.825 186.492, 620.235 189.492, 619.398 193.043 C 618.561 196.594, 617.485 201.300, 617.006 203.500 C 616.528 205.700, 614.934 212.450, 613.464 218.500 C 611.994 224.550, 610.443 231.075, 610.018 233 C 609.592 234.925, 608.291 240.745, 607.127 245.932 C 605.210 254.471, 605.153 255.584, 606.528 257.682 C 608.538 260.750, 613.583 260.745, 617.070 257.671 C 619.764 255.296, 621.700 248.829, 627.598 222.500 C 629.076 215.900, 630.897 207.800, 631.644 204.500 C 635.789 186.186, 635.767 186.401, 633.726 183.598 C 631.901 181.093, 631.468 181, 621.667 181.012 L 611.500 181.024 616 183.596 M 712.842 184.303 C 717.590 186.687, 717.461 185.996, 715.127 196.500 C 708.461 226.504, 705.437 239.573, 702.463 251.235 C 700.162 260.256, 699.992 260, 708.280 260 L 715.561 260 719.332 243.750 C 721.407 234.813, 723.724 224.800, 724.481 221.500 C 726.621 212.173, 731.113 193.061, 732.530 187.250 L 733.810 182 721.155 182.062 L 708.500 182.124 712.842 184.303 M 1173.515 184.102 C 1175.707 185.259, 1177.820 186.501, 1178.212 186.864 C 1178.841 187.447, 1177.262 196.426, 1175.411 202.794 C 1174.750 205.065, 1174.824 205.086, 1182.601 204.794 L 1190.459 204.500 1191.609 199.500 C 1192.242 196.750, 1193.428 191.688, 1194.246 188.250 L 1195.732 182 1182.631 182 L 1169.530 182 1173.515 184.102 M 523.500 185.170 C 525.700 186.314, 527.596 187.328, 527.714 187.423 C 527.832 187.518, 527.050 191.174, 525.976 195.547 C 524.902 199.921, 524.018 204.063, 524.012 204.750 C 524.003 205.638, 526.129 206, 531.346 206 L 538.691 206 540.934 196.250 C 542.168 190.887, 543.393 185.713, 543.656 184.750 C 544.094 183.150, 543.076 183.004, 531.817 183.044 L 519.500 183.088 523.500 185.170 M 945.691 185.231 C 950.311 187.553, 950.435 188.454, 947.380 197.500 C 946.637 199.700, 946.023 202.512, 946.015 203.750 C 946.001 205.882, 946.389 206, 953.387 206 C 960.651 206, 960.782 205.954, 961.298 203.250 C 961.954 199.811, 964.702 188.257, 965.578 185.250 C 966.233 183, 966.231 183, 953.867 183.062 L 941.500 183.124 945.691 185.231 M 158.581 202.750 C 161.684 216.529, 165.246 227.191, 170.618 238.791 C 172.985 243.901, 175.870 249.413, 177.029 251.041 C 180.257 255.574, 177.376 254.756, 170.729 249.250 C 164.583 244.159, 158.494 237.253, 153.759 230 L 150.821 225.500 151.495 230 C 153.442 242.998, 157.878 254.552, 164.791 264.637 C 169.617 271.676, 178 280.091, 178 277.895 C 178 272.425, 195.490 251.032, 204.739 245.189 C 207.081 243.710, 208.995 242.275, 208.993 242 C 208.991 241.725, 204.379 239.071, 198.745 236.102 C 178.235 225.294, 168.509 217.187, 161.808 205.314 C 158.438 199.343, 157.678 198.739, 158.581 202.750 M 515.133 242.750 C 514.614 244.813, 513.657 248.975, 513.007 252 C 512.357 255.025, 511.609 258.288, 511.345 259.250 C 510.919 260.805, 511.708 261, 518.414 261 C 525.834 261, 525.972 260.953, 526.571 258.250 C 526.906 256.738, 527.551 254.150, 528.006 252.500 C 528.460 250.850, 529.121 247.781, 529.474 245.679 C 529.828 243.577, 530.364 241.215, 530.666 240.429 C 531.111 239.268, 529.795 239, 523.646 239 L 516.077 239 515.133 242.750 M 937.540 240.250 C 937.073 241.720, 933 259.954, 933 260.576 C 933 260.809, 936.366 261, 940.481 261 C 947.824 261, 947.973 260.949, 948.585 258.250 C 948.928 256.738, 949.790 253.025, 950.500 250 C 951.210 246.975, 952.072 243.262, 952.415 241.750 L 953.038 239 945.488 239 C 940.326 239, 937.812 239.395, 937.540 240.250 M 245 248.064 C 238.923 249.131, 220.630 254.964, 221.291 255.624 C 221.520 255.854, 224.103 255.528, 227.030 254.900 C 234.243 253.353, 258.688 254.327, 266.500 256.473 C 269.800 257.379, 276.325 259.986, 281 262.267 C 287.822 265.594, 291.182 268.099, 298.018 274.956 C 307.747 284.715, 311.631 291.282, 315.503 304.527 C 322.394 328.092, 316.542 354.089, 298.945 378.086 L 292.775 386.500 300.949 378.500 C 315.423 364.336, 323.558 348.918, 326 331.023 C 329.314 306.749, 318.694 278.355, 300.825 263.713 C 285.091 250.820, 263.608 244.798, 245 248.064 M 299 251.222 C 299 252.829, 307.046 257, 310.144 257 C 312.089 257, 317.144 257.886, 321.377 258.968 C 340.940 263.972, 357.685 277.399, 366.342 295.022 C 372.320 307.191, 374.275 315.073, 374.275 327 C 374.275 337.736, 372.400 346.352, 368.019 355.750 C 364.078 364.202, 365.120 363.697, 369.479 355.041 C 379.835 334.478, 380.069 309.946, 370.098 290.194 C 358.331 266.883, 336.068 252.512, 309.750 251.237 C 303.837 250.951, 299 250.944, 299 251.222 M 75 262 C 72.455 264.545, 72.434 269.041, 74.933 276.304 C 77.407 283.496, 84.690 297.600, 90.490 306.430 C 92.979 310.219, 94.801 313.532, 94.541 313.792 C 93.889 314.445, 81.472 303.329, 74.357 295.723 C 65.388 286.135, 59.274 276.136, 57.711 268.500 C 57.384 266.905, 56.947 267.301, 55.552 270.455 C 52.631 277.057, 53.679 286.943, 58.289 296.271 C 65.105 310.062, 82.229 325.700, 98.518 333.008 C 111.928 339.025, 133.475 344.542, 152.974 346.953 C 165.515 348.503, 166.157 348.347, 160.202 345.197 C 151.558 340.625, 137.465 330.221, 129.874 322.809 C 125.974 319, 122.960 315.707, 123.177 315.490 C 123.394 315.273, 128.055 317.271, 133.536 319.930 C 139.016 322.589, 148.681 326.570, 155.013 328.776 L 166.526 332.787 166.815 322.644 C 166.974 317.065, 167.193 311.384, 167.302 310.021 C 167.730 304.660, 105.731 266.764, 88.068 261.591 C 80.853 259.477, 77.415 259.585, 75 262 M 235.885 300.319 C 231.907 301.807, 227.070 305.006, 224.969 307.538 C 224.002 308.703, 224.883 308.502, 228.058 306.834 C 241.174 299.942, 257 309.436, 257 324.197 C 257 334.657, 248.303 343.897, 238.300 344.063 C 234.725 344.123, 234.648 344.187, 237 345.153 C 238.375 345.718, 242.129 345.953, 245.343 345.676 C 253.029 345.014, 259.436 341.083, 263.474 334.552 C 266.104 330.297, 266.500 328.721, 266.500 322.500 C 266.500 316.279, 266.104 314.703, 263.474 310.448 C 257.814 301.295, 245.429 296.747, 235.885 300.319 M 449.379 319.437 C 444.351 321.625, 441.481 326.548, 438.559 338 C 435.002 351.940, 434.979 355.725, 438.435 358.698 C 440.585 360.547, 442.291 361, 447.105 361 C 458.901 361, 461.939 357.662, 466.507 339.683 C 470.354 324.543, 470.160 322.169, 464.855 319.425 C 461.404 317.641, 453.492 317.647, 449.379 319.437 M 634.500 319.412 C 628.788 321.951, 626.921 325.194, 623.396 338.706 C 621.561 345.743, 620.046 352.472, 620.029 353.661 C 620.013 354.872, 621.352 356.960, 623.077 358.411 C 625.661 360.586, 627.143 361, 632.342 361 C 642.883 361, 648.281 356.524, 649.633 346.663 L 650.272 342 644.676 342 L 639.080 342 637.877 346.250 C 636.462 351.243, 634.444 353.851, 633.073 352.457 C 632.483 351.858, 632.864 348.511, 634.092 343.500 C 637.347 330.216, 638.366 327.547, 640.324 327.173 C 641.953 326.862, 642.075 327.318, 641.461 331.412 L 640.773 336 646.418 336 C 650.080 336, 652.186 335.561, 652.413 334.750 C 652.606 334.063, 653.319 331.650, 653.996 329.389 C 655.058 325.847, 654.996 324.923, 653.548 322.714 C 650.601 318.215, 640.954 316.543, 634.500 319.412 M 665.458 319.880 C 663.235 320.890, 660.694 322.818, 659.811 324.165 C 658.229 326.580, 652 349.857, 652 353.355 C 652 354.344, 653.315 356.469, 654.923 358.077 C 657.486 360.639, 658.565 361, 663.673 360.998 C 670.233 360.997, 675.360 358.876, 678.172 355 C 681.467 350.459, 686.754 328.139, 685.612 323.590 C 684.283 318.294, 673.372 316.285, 665.458 319.880 M 731.286 319.057 C 725.375 320.862, 722.793 325.837, 718.457 343.781 C 715.921 354.275, 716.240 356.801, 720.452 359.561 C 724.071 361.932, 735.882 361.225, 739.649 358.412 C 742.840 356.030, 745.538 351.002, 746.444 345.750 L 747.091 342 741.152 342 C 735.013 342, 734 342.704, 734 346.971 C 734 347.965, 733.133 349.841, 732.074 351.139 C 728.697 355.280, 728.569 351.048, 731.703 338.790 C 734.280 328.711, 734.841 327.464, 736.935 327.162 C 738.859 326.885, 739.154 327.155, 738.571 328.662 C 738.180 329.673, 737.610 331.738, 737.305 333.250 L 736.750 336 742.750 336 C 748.670 336, 748.758 335.958, 749.375 332.875 C 750.588 326.808, 750.085 322.387, 747.963 320.466 C 745.580 318.310, 736.301 317.526, 731.286 319.057 M 843.467 319.998 C 838.142 322.634, 836.819 325.172, 833.077 339.941 C 829.690 353.310, 829.733 356.999, 833.302 359.499 C 836.143 361.489, 844.909 361.452, 847.785 359.438 C 849.807 358.022, 850.071 358.022, 850.615 359.438 C 851.244 361.078, 855.507 361.606, 856.404 360.155 C 856.833 359.461, 859.365 349.064, 861.739 338.250 C 862.215 336.080, 861.978 336, 855.085 336 C 850.239 336, 847.813 336.402, 847.552 337.250 C 846.098 341.971, 846.044 344, 847.375 344 C 849.335 344, 847.399 351.633, 845.228 352.466 C 842.386 353.557, 842.165 351.591, 844.167 343 C 847.143 330.228, 848.257 327.546, 850.734 327.187 C 852.689 326.905, 852.839 327.214, 852.316 330.437 L 851.738 334 857.253 334 C 862.126 334, 862.837 333.738, 863.370 331.750 C 864.156 328.816, 864.160 324.581, 863.379 322.545 C 861.624 317.972, 850.448 316.542, 843.467 319.998 M 1189.500 319.206 C 1182.984 321.483, 1180.318 326.534, 1176.571 343.697 C 1174.447 353.426, 1174.581 355.672, 1177.455 358.545 C 1179.523 360.614, 1180.867 361, 1185.994 361 C 1194.334 361, 1199.544 358.285, 1202.043 352.635 C 1203.074 350.304, 1205.136 343.285, 1206.624 337.037 C 1209.059 326.813, 1209.185 325.421, 1207.885 323.103 C 1207.090 321.687, 1205.328 319.967, 1203.970 319.279 C 1201.019 317.786, 1193.671 317.749, 1189.500 319.206 M 1271.313 319.050 C 1267.629 320.177, 1262.428 326.014, 1261.683 329.860 C 1261.402 331.312, 1260.351 335.875, 1259.348 340 C 1256.841 350.309, 1256.897 357.459, 1259.500 359.425 C 1262.136 361.417, 1270.908 361.453, 1273.719 359.484 C 1275.664 358.122, 1275.974 358.131, 1276.782 359.575 C 1277.312 360.523, 1278.626 361.041, 1279.987 360.840 C 1281.934 360.553, 1282.655 359.252, 1284.611 352.500 C 1285.885 348.100, 1287.220 342.587, 1287.577 340.250 L 1288.227 336 1281.235 336 L 1274.243 336 1273.228 340 C 1272.380 343.341, 1272.460 344, 1273.713 344 C 1274.671 344, 1274.994 344.572, 1274.607 345.582 C 1274.273 346.452, 1274 347.770, 1274 348.510 C 1274 350.100, 1271.302 353, 1269.824 353 C 1268.448 353, 1269.200 347.618, 1272.129 336.500 C 1274.184 328.700, 1274.808 327.456, 1276.810 327.173 C 1278.959 326.868, 1279.072 327.097, 1278.438 330.476 L 1277.757 334.107 1283.629 333.804 L 1289.500 333.500 1289.794 327.945 C 1290.037 323.358, 1289.725 322.061, 1288.007 320.506 C 1285.584 318.314, 1276.354 317.509, 1271.313 319.050 M 475.394 321.750 C 475.040 323.262, 474.092 326.975, 473.287 330 C 472.483 333.025, 470.976 339.100, 469.940 343.500 C 468.904 347.900, 467.593 353.072, 467.028 354.993 C 465.277 360.942, 465.430 361.130, 471.750 360.800 L 477.500 360.500 479.500 352.500 L 481.500 344.500 482 352.500 L 482.500 360.500 488.125 360.796 C 493.284 361.068, 493.794 360.902, 494.285 358.796 C 494.580 357.533, 496.886 348.257, 499.411 338.181 C 501.935 328.106, 504 319.668, 504 319.431 C 504 319.194, 501.393 319, 498.206 319 L 492.413 319 491.038 325.196 C 489.524 332.020, 488.201 331.152, 488.070 323.250 L 488 319 482.019 319 C 476.317 319, 476.008 319.128, 475.394 321.750 M 508.538 321.250 C 507.726 324.906, 500.066 356.300, 499.389 358.750 C 498.769 360.990, 498.818 361, 510.408 361 C 521.984 361, 522.055 360.986, 523.025 358.435 C 524.883 353.548, 524.425 353, 518.481 353 C 512.978 353, 512.964 352.992, 513.576 350.250 C 515.273 342.658, 518.647 329.426, 520.117 324.601 C 521.734 319.294, 521.466 319, 515.019 319 C 509.631 319, 508.989 319.223, 508.538 321.250 M 535.517 320.250 C 534.542 323.147, 526 358.675, 526 359.833 C 526 360.743, 527.614 361.015, 531.725 360.800 L 537.450 360.500 539.177 352.500 C 540.127 348.100, 542.276 339.147, 543.952 332.605 C 545.629 326.062, 547 320.325, 547 319.855 C 547 318.451, 535.995 318.830, 535.517 320.250 M 551.659 319.750 C 551.406 320.163, 549.990 325.675, 548.511 332 C 545.897 343.184, 543.709 351.698, 542.037 357.192 C 541.586 358.673, 541.469 360.135, 541.775 360.442 C 542.082 360.749, 544.703 361, 547.599 361 C 551.764 361, 552.966 360.634, 553.347 359.250 C 553.612 358.288, 554.420 355.069, 555.143 352.098 C 556.251 347.541, 556.561 347.072, 557.128 349.098 C 557.498 350.419, 557.845 353.660, 557.900 356.300 L 558 361.100 563.750 360.800 L 569.500 360.500 574.081 342 C 576.600 331.825, 578.993 322.488, 579.398 321.250 C 580.107 319.083, 579.910 319, 574.086 319 C 568.636 319, 567.986 319.223, 567.513 321.250 C 567.225 322.488, 566.353 326.200, 565.577 329.500 L 564.167 335.500 564.083 327.250 L 564 319 558.059 319 C 554.791 319, 551.911 319.337, 551.659 319.750 M 584.472 320.250 C 584.216 320.938, 583.601 323.525, 583.105 326 C 582.608 328.475, 580.588 336.800, 578.615 344.500 C 576.642 352.200, 575.022 359.063, 575.014 359.750 C 575.004 360.678, 577.947 361, 586.441 361 C 592.734 361, 598.093 360.659, 598.350 360.242 C 598.608 359.826, 599.134 357.801, 599.521 355.742 L 600.223 352 594.544 352 C 589.604 352, 588.933 351.772, 589.385 350.250 C 589.671 349.288, 590.200 347.262, 590.561 345.750 C 591.176 343.173, 591.554 343, 596.589 343 C 601.349 343, 602.018 342.743, 602.453 340.750 C 603.811 334.527, 603.806 334.520, 598.750 334.195 C 593.954 333.887, 593.254 333.108, 594.607 329.582 C 595.045 328.440, 596.565 328, 600.072 328 C 605.230 328, 606.055 327.295, 607.381 321.750 L 608.038 319 596.488 319 C 588.162 319, 584.807 319.349, 584.472 320.250 M 694.671 324.250 C 693.682 327.137, 691.809 332.200, 690.508 335.500 C 689.207 338.800, 686.804 345.100, 685.168 349.500 C 683.531 353.900, 681.876 358.288, 681.489 359.250 C 680.866 360.802, 681.474 361, 686.864 361 C 692.884 361, 692.951 360.968, 693.779 357.750 C 694.472 355.058, 695.155 354.447, 697.754 354.191 C 700.842 353.886, 700.884 353.941, 700.307 357.495 L 699.721 361.108 705.610 360.804 L 711.500 360.500 712.227 353.500 C 712.627 349.650, 713.403 343.125, 713.952 339 C 714.501 334.875, 715.230 328.688, 715.573 325.250 L 716.196 319 706.333 319 L 696.469 319 694.671 324.250 M 756.519 320.250 C 755.589 323.030, 747 358.824, 747 359.920 C 747 360.724, 748.824 361.004, 752.730 360.800 C 757.873 360.531, 758.532 360.244, 759.160 358 C 760.323 353.846, 761.867 347.665, 762.470 344.750 C 762.871 342.806, 763.652 342, 765.133 342 C 767.500 342, 767.450 343.095, 764.612 353.299 C 763.726 356.488, 763 359.526, 763 360.049 C 763 360.572, 765.691 361, 768.981 361 C 774.370 361, 775.011 360.777, 775.457 358.750 C 778.357 345.584, 782.319 329.500, 784.117 323.601 C 785.511 319.025, 785.346 318.888, 778.796 319.202 L 772.593 319.500 771.177 326.156 C 769.955 331.903, 769.428 332.876, 767.323 333.279 C 765.598 333.608, 765.031 333.361, 765.387 332.435 C 765.663 331.715, 766.391 329.184, 767.004 326.813 C 767.617 324.441, 768.348 321.712, 768.627 320.750 C 769.071 319.219, 768.371 319, 763.036 319 C 759.047 319, 756.793 319.432, 756.519 320.250 M 789.066 321.250 C 788.575 322.488, 787.181 328, 785.968 333.500 C 784.113 341.906, 782.147 349.577, 779.368 359.250 C 778.929 360.779, 779.628 361, 784.914 361 C 790.708 361, 790.986 360.885, 791.526 358.250 C 791.837 356.738, 792.587 353.700, 793.194 351.500 C 793.800 349.300, 794.646 345.925, 795.072 344 C 795.498 342.075, 796.994 336, 798.397 330.500 C 799.800 325, 800.959 320.163, 800.974 319.750 C 800.988 319.337, 798.515 319, 795.479 319 C 790.683 319, 789.840 319.296, 789.066 321.250 M 804.291 323.750 C 801.261 336.793, 797.753 350.974, 796.561 355 C 795.828 357.475, 795.429 359.837, 795.674 360.250 C 795.918 360.663, 798.558 361, 801.540 361 C 806.330 361, 807.027 360.738, 807.521 358.750 C 807.828 357.512, 808.926 353.125, 809.960 349 L 811.840 341.500 811.920 351.300 L 812 361.100 817.717 360.800 C 823.129 360.516, 823.476 360.340, 824.224 357.500 C 824.659 355.850, 826.965 346.512, 829.350 336.750 L 833.685 319 827.862 319 C 822.332 319, 822.005 319.139, 821.391 321.750 C 821.035 323.262, 820.156 326.750, 819.438 329.500 L 818.132 334.500 818.066 326.750 L 818 319 811.697 319 L 805.395 319 804.291 323.750 M 887.847 328.250 C 879.612 349.524, 876 359.232, 876 360.090 C 876 360.590, 878.469 361, 881.487 361 C 886.812 361, 887.016 360.897, 888.436 357.500 C 889.622 354.661, 890.436 354, 892.748 354 C 895.417 354, 895.572 354.223, 895.190 357.500 L 894.781 361 900.279 361 C 906.686 361, 906.103 362.353, 908.030 343 C 908.660 336.675, 909.586 329.340, 910.088 326.701 C 911.632 318.576, 912.120 319, 901.214 319 L 891.428 319 887.847 328.250 M 918.992 320.750 C 918.988 321.712, 917.582 327.900, 915.868 334.500 C 912.750 346.499, 911.532 351.645, 910.361 357.750 L 909.738 361 915.331 361 L 920.923 361 921.977 356.750 C 922.557 354.413, 923.463 350.925, 923.990 349 C 924.518 347.075, 925.134 344.600, 925.359 343.500 C 925.584 342.400, 925.820 345.910, 925.884 351.300 L 926 361.100 931.750 360.800 L 937.500 360.500 940.282 349.500 C 941.812 343.450, 943.897 334.900, 944.915 330.500 C 945.934 326.100, 947.092 321.712, 947.490 320.750 C 948.133 319.196, 947.533 319, 942.126 319 C 936.308 319, 936.009 319.122, 935.391 321.750 C 935.035 323.262, 934.156 326.750, 933.438 329.500 L 932.132 334.500 932.066 326.750 L 932 319 925.500 319 C 919.979 319, 918.999 319.264, 918.992 320.750 M 952.519 320.250 C 951.614 322.955, 943 358.809, 943 359.870 C 943 360.633, 946.172 361, 952.766 361 C 968.707 361, 971.074 358.847, 976.012 339.857 C 979.513 326.393, 979.656 323.656, 977 321 C 975.242 319.242, 973.667 319, 963.969 319 C 956.033 319, 952.820 319.351, 952.519 320.250 M 1001.448 321.750 C 1001.124 323.262, 1000.268 326.525, 999.548 329 C 998.827 331.475, 997.268 337.775, 996.083 343 C 994.897 348.225, 993.494 353.882, 992.964 355.571 C 991.296 360.885, 991.516 361.125, 997.750 360.800 L 1003.500 360.500 1005.677 352 L 1007.855 343.500 1007.927 352.250 L 1008 361 1013.981 361 C 1019.686 361, 1019.991 360.873, 1020.593 358.250 C 1020.939 356.738, 1022.089 352.125, 1023.146 348 C 1024.204 343.875, 1025.948 336.675, 1027.022 332 C 1028.096 327.325, 1029.257 322.488, 1029.604 321.250 C 1030.206 319.099, 1029.973 319, 1024.307 319 L 1018.382 319 1016.288 327.750 L 1014.194 336.500 1014.097 327.750 L 1014 319 1008.019 319 C 1002.304 319, 1002.012 319.122, 1001.448 321.750 M 1033.663 321.750 C 1032.237 328.423, 1029.964 338.099, 1028.120 345.347 C 1025.885 354.129, 1026.334 356.862, 1030.452 359.561 C 1032.392 360.832, 1034.645 361.133, 1039.963 360.832 C 1046.041 360.489, 1047.334 360.058, 1050.067 357.469 C 1053.418 354.295, 1054.634 351.849, 1056.021 345.500 C 1057.344 339.446, 1059.644 330.117, 1061.260 324.250 L 1062.707 319 1056.604 319.005 L 1050.500 319.009 1047.637 331.755 C 1043.786 348.897, 1042.262 353, 1039.746 353 C 1038.270 353, 1040.152 342.421, 1044.424 326.701 C 1045.291 323.512, 1046 320.474, 1046 319.951 C 1046 319.428, 1043.356 319, 1040.125 319 C 1034.525 319, 1034.223 319.129, 1033.663 321.750 M 1064.436 321.750 C 1064.104 323.262, 1063.660 325.063, 1063.448 325.750 C 1063.192 326.580, 1064.202 327, 1066.451 327 L 1069.839 327 1068.899 330.750 C 1068.382 332.813, 1067.532 336.075, 1067.011 338 C 1065.337 344.183, 1062 358.818, 1062 359.977 C 1062 360.712, 1063.986 360.996, 1067.750 360.800 L 1073.500 360.500 1074.825 355.500 C 1075.553 352.750, 1077.030 346.675, 1078.107 342 C 1081.438 327.539, 1081.699 327, 1085.371 327 C 1088.278 327, 1088.689 326.616, 1089.654 323 L 1090.722 319 1077.880 319 L 1065.038 319 1064.436 321.750 M 1093.479 320.250 C 1092.642 322.536, 1087.824 341.384, 1086.003 349.500 C 1085.015 353.900, 1083.888 358.288, 1083.497 359.250 C 1082.866 360.804, 1083.474 361, 1088.924 361 C 1092.994 361, 1095.173 360.579, 1095.390 359.750 C 1095.570 359.063, 1096.179 356.925, 1096.744 355 C 1097.308 353.075, 1098.330 349.363, 1099.015 346.750 C 1099.736 344, 1100.837 342, 1101.630 342 C 1103.322 342, 1103.375 341.258, 1101.015 350.623 C 1098.245 361.620, 1098.073 361.148, 1104.725 360.800 L 1110.450 360.500 1112.807 351.500 C 1114.699 344.279, 1114.930 342.124, 1113.979 340.598 C 1113.008 339.041, 1113.101 338.523, 1114.490 337.746 C 1118.825 335.320, 1120.760 322.012, 1117.066 320.035 C 1114.190 318.496, 1094.055 318.680, 1093.479 320.250 M 1124.516 320.250 C 1123.497 323.272, 1115 358.473, 1115 359.670 C 1115 360.613, 1116.579 361, 1120.429 361 L 1125.858 361 1127.344 355.750 C 1128.162 352.863, 1129.817 346.225, 1131.023 341 C 1132.229 335.775, 1133.842 329.281, 1134.608 326.568 C 1135.373 323.856, 1136 321.044, 1136 320.318 C 1136 318.531, 1125.117 318.466, 1124.516 320.250 M 1138.647 320.750 C 1138.378 321.712, 1137.868 323.512, 1137.512 324.750 C 1136.941 326.735, 1137.227 327, 1139.933 327 C 1141.620 327, 1143 327.387, 1143 327.860 C 1143 328.334, 1141.425 335.083, 1139.500 342.860 C 1134.833 361.715, 1134.758 361, 1141.402 361 C 1147.779 361, 1147.009 362.424, 1152.073 341.250 L 1155.480 327 1158.681 327 C 1162.278 327, 1162.488 326.791, 1163.462 322.250 L 1164.159 319 1151.647 319 C 1140.583 319, 1139.078 319.203, 1138.647 320.750 M 1162.594 337.750 C 1160.057 348.063, 1157.702 357.537, 1157.360 358.804 C 1156.757 361.041, 1156.909 361.099, 1162.619 360.804 L 1168.500 360.500 1172.697 344 C 1175.005 334.925, 1177.313 325.587, 1177.826 323.250 L 1178.758 319 1172.982 319 L 1167.206 319 1162.594 337.750 M 1215 319.250 C 1215 320.185, 1211.680 334.399, 1209.220 344 C 1207.599 350.325, 1205.978 356.738, 1205.617 358.250 L 1204.962 361 1210.981 361 C 1214.291 361, 1217.026 360.663, 1217.058 360.250 C 1217.089 359.837, 1217.963 356.350, 1219 352.500 C 1220.608 346.529, 1220.908 346.015, 1221.041 349 C 1221.127 350.925, 1221.295 353.400, 1221.414 354.500 C 1221.533 355.600, 1221.714 357.535, 1221.815 358.800 C 1221.988 360.949, 1222.375 361.080, 1227.713 360.800 C 1234.183 360.460, 1233.149 362.131, 1236.877 346 C 1237.957 341.325, 1239.767 334.125, 1240.897 330 C 1243.984 318.737, 1244.020 318.846, 1237.328 319.200 L 1231.657 319.500 1229.943 326.500 L 1228.230 333.500 1228.115 326.250 L 1228 319 1221.500 319 C 1217.925 319, 1215 319.113, 1215 319.250 M 1296.541 319.933 C 1296.224 320.446, 1295.571 322.809, 1295.089 325.183 C 1294.608 327.557, 1292.839 334.819, 1291.158 341.319 C 1287.814 354.255, 1287.982 356.632, 1292.452 359.561 C 1294.392 360.832, 1296.645 361.133, 1301.963 360.832 C 1308.003 360.491, 1309.335 360.053, 1311.949 357.549 C 1315.346 354.294, 1317.391 349.503, 1319.439 340 C 1320.210 336.425, 1321.697 330.238, 1322.743 326.250 L 1324.646 319 1318.900 319 C 1312.500 319, 1312.801 318.621, 1310.165 330 C 1305.903 348.404, 1304.247 353, 1301.878 353 C 1301.395 353, 1301 352.086, 1301 350.970 C 1301 348.903, 1305.299 330.019, 1307.042 324.429 C 1307.569 322.740, 1308 320.827, 1308 320.179 C 1308 318.754, 1297.411 318.526, 1296.541 319.933 M 1323.640 338.711 C 1320.967 349.546, 1318.556 358.994, 1318.283 359.706 C 1317.910 360.677, 1319.299 361, 1323.854 361 L 1329.923 361 1331.061 356.772 C 1331.688 354.447, 1332.798 349.834, 1333.529 346.522 C 1334.260 343.210, 1336.010 336, 1337.417 330.500 C 1338.825 325, 1339.982 320.163, 1339.988 319.750 C 1339.995 319.337, 1337.412 319.003, 1334.250 319.006 L 1328.500 319.011 1323.640 338.711 M 1344 320.679 C 1344 321.602, 1343.558 323.740, 1343.017 325.429 C 1341.137 331.300, 1335 356.990, 1335 358.989 C 1335 360.858, 1335.650 361, 1344.184 361 C 1355.203 361, 1360.907 358.827, 1363.332 353.706 C 1364.771 350.666, 1371 327.359, 1371 325.013 C 1371 324.406, 1369.895 322.805, 1368.545 321.455 C 1366.236 319.145, 1365.439 319, 1355.045 319 C 1345.371 319, 1344 319.208, 1344 320.679 M 1375.743 325.250 C 1374.305 330.441, 1372.186 338.864, 1367.318 358.750 C 1366.769 360.990, 1366.822 361, 1378.864 361 L 1390.962 361 1391.574 358.250 C 1391.910 356.738, 1392.399 354.712, 1392.660 353.750 C 1393.073 352.227, 1392.367 352, 1387.206 352 L 1381.277 352 1382.307 347.500 L 1383.337 343 1388.621 343 C 1393.876 343, 1393.912 342.979, 1394.947 339.250 C 1396.430 333.911, 1396.497 334, 1391 334 C 1385.776 334, 1385.653 333.895, 1386.630 330.250 C 1387.160 328.274, 1387.881 328, 1392.558 328 C 1398.477 328, 1398.465 328.009, 1399.414 322.750 L 1400.091 319 1388.783 319 L 1377.475 319 1375.743 325.250 M 453.655 327.750 C 453.013 328.791, 450.142 339.325, 448.602 346.291 C 447.286 352.244, 448.036 354.436, 450.510 351.868 C 451.660 350.675, 457 331.129, 457 328.114 C 457 326.868, 454.376 326.583, 453.655 327.750 M 670.264 328.250 C 668.645 330.312, 663.919 351.319, 664.862 352.262 C 666.669 354.069, 668.839 349.753, 671.380 339.301 C 672.824 333.361, 674.004 328.163, 674.002 327.750 C 673.998 326.535, 671.330 326.892, 670.264 328.250 M 961.663 332.250 C 959.428 340.179, 956.867 352.200, 957.316 352.650 C 958.265 353.599, 960.835 351.680, 961.290 349.683 C 961.564 348.482, 962.674 344.125, 963.756 340 C 967.308 326.462, 967.253 327, 965.090 327 C 963.594 327, 962.798 328.220, 961.663 332.250 M 1103.586 328.176 C 1102.314 332.301, 1102.281 334, 1103.471 334 C 1106.567 334, 1108.643 327.807, 1105.747 327.212 C 1104.783 327.014, 1103.810 327.448, 1103.586 328.176 M 1192.495 328.250 C 1192.252 328.938, 1191.562 331.525, 1190.961 334 C 1190.360 336.475, 1189.415 340.300, 1188.862 342.500 C 1187.181 349.182, 1186.736 353.001, 1187.641 352.985 C 1189.883 352.945, 1190.951 350.731, 1193.425 341 C 1194.893 335.225, 1196.329 329.712, 1196.615 328.750 C 1196.994 327.474, 1196.566 327, 1195.036 327 C 1193.882 327, 1192.738 327.563, 1192.495 328.250 M 1354.481 328.750 C 1353.134 331.964, 1348.186 352.493, 1348.644 352.965 C 1348.893 353.220, 1349.862 352.953, 1350.798 352.371 C 1351.854 351.715, 1353.527 347.366, 1355.207 340.907 C 1358.330 328.899, 1358.521 327, 1356.607 327 C 1355.841 327, 1354.884 327.788, 1354.481 328.750 M 894.832 339.194 C 892.339 346.488, 892.285 347, 894.011 347 C 895.444 347, 896.113 345.771, 896.997 341.515 C 898.992 331.907, 897.770 330.597, 894.832 339.194 M 700.147 339.501 C 697.554 347.401, 697.568 347, 699.884 347 C 701.466 347, 701.880 345.948, 702.472 340.421 C 702.859 336.803, 702.978 333.644, 702.735 333.402 C 702.493 333.159, 701.328 335.904, 700.147 339.501"
          stroke="none" fill="#fffcfc" fill-rule="evenodd"/>
    <path d="" stroke="none" fill="#fcfcfc" fill-rule="evenodd"/>
</svg>