<?xml version="1.0" encoding="UTF-8"?>
<svg id="Layer_1" xmlns="http://www.w3.org/2000/svg" version="1.1" viewBox="0 0 165 50">
  <!-- Generator: Adobe Illustrator 30.1.0, SVG Export Plug-In . SVG Version: 2.1.1 Build 136)  -->
  <defs>
    <style>
      .st0 {
        font-size: 6.2px;
        letter-spacing: 0em;
      }

      .st0, .st1, .st2, .st3 {
        fill: #fff;
      }

      .st0, .st3 {
        font-family: Anton-Regular, Anton;
      }

      .st2 {
        fill-rule: evenodd;
      }

      .st3 {
        font-size: 8.1px;
        letter-spacing: 0em;
      }

      .st4 {
        display: none;
      }
    </style>
  </defs>
  <g>
    <path class="st2" d="M24,35.8c.5-.9.2-2-.7-2.4-.2-.1-.4-.2-.6-.2-.6,0-1.3.2-1.7.7v-.2c.5-.7,1.2-1.1,2-1.1.5,0,1,.1,1.4.5.8.6,1.1,1.7.7,2.6s-2,1.7-3.1,1.1h-.2c.8.2,1.8,0,2.3-.9M30.2,29c-.5-.1-1-.2-1.4-.2-.3-.2-.5-.4-.8-.6.8-.1,1.6,0,2.4.1,0,0,0,0,0,0,3.5.9,5.7,4.5,4.8,8-.3,1.2-.9,2.2-1.7,3,.6-.7,1.1-1.6,1.4-2.6.9-3.4-1.1-6.8-4.5-7.8,0,0-.1,0-.2,0ZM29.4,32.4c-.7-1.7-2.3-3.3-4.9-3.8-1.1-.2-2.4-.2-3.9.2,1.4-.7,2.7-1,3.9-1,2.8.1,4.9,2,5.8,4.4.8,2.2.6,4.8-1.2,7-.5.6-1.1,1.1-1.8,1.7,1.1-1.2,2-2.7,2.4-4.3,0-.2,0-.4.1-.6.2-1.1,0-2.3-.5-3.5ZM15.1,23.2c1.3,2.8,3.4,3.2,4.9,4.2-.3.2-.5.3-.8.5-.5.4-1,.9-1.4,1.4,0,0,0,0,0,0,0,0,0,0,0,.1-.4.5-.6,1-.8,1.5h0c-1.3-1.2-2.3-2.7-2.5-5.2.6,1.2,1.7,2.4,2.6,2.8-1.3-2.3-1.8-4.1-1.9-5.3ZM7.9,29c.7,0,.7,0,3.1,1.2,1.6.8,3.6,2.2,5.1,3.3-.1.8-.2,1.6-.1,2.3-1.4-.4-3-1-4.1-1.7,0,0,1.3,1.7,4.2,3.1,0,0-4.8-.2-7.5-2-2.3-1.5-3.9-4.1-2.6-5.7,0,0-.1,1.7,3.4,4.5,0,0-3.4-4.9-1.4-5ZM3.4,17.5c1.1,1,1.8,2.2,1.9,3.5.1,1,0,2.2-.4,3.3,0,0-.1-2.3-1.1-3.8,0,0,.4,4.1.1,6.3-.3,2.1-1,2-1.5.3-.5-1.7-1.3-7,.9-9.5ZM27.2,17.4s0,0,0,0c0,0,0,0,0,0h0c.7,2.5,1,5.5-1.3,6.5-2.1.9-5.7,1.1-8.5-1.3,0,0,3.5.8,5.8-.4,0,0-5.2.1-8-2.4h0c1.1-.9,1.8-2.3,2-4.1-1.1,1.8-4,4.7-7.2,5,1.3.3,2.5.2,3.5,0,.4,2.5-.1,5.7-2.9,7.1,2.3-2.4,1.4-5.5,1.4-5.5-.6,3.7-2.4,4.7-3.3,4.7-.8,0-1.5-.9-1.9-2.1h0c-.5-1.6-.6-3.5,0-4.3.6.3,1.5.7,2.6.8h0c-4.7-1.9-5.6-7.6-2.4-10.9-1,1.9.2,4.8.2,4.8-.5-4.6,5.3-8.6,12.1-4.5,0,0-2.8,1-3.2,3.9,2.4-3.9,7.6-3.8,10-.2-1.1-.4-3.2-.9-5.4,0,2.4-.2,5.8.4,6.6,2.8h0ZM34.4,40.9c1.2-1.1,2.1-2.5,2.5-4.1,1.1-4.5-1.6-9-6-10.1-1.2-.3-2.6-.3-3.8,0h0s0,0,0,0h0s0,0,0,0h0s0,0,0,0h0s0,0,0,0h0s0,0,0,0h0s0,0,0,0h0s0,0,0,0h0s0,0,0,0h0s0,0,0,0h0s0,0,0,0h0s0,0,0,0h0s0,0,0,0h0s0,0,0,0h0s0,0,0,0h0s0,0,0,0h0s0,0,0,0h0s0,0,0,0h0s0,0,0,0h0s0,0,0,0h0s0,0,0,0h0s0,0,0,0h0s0,0,0,0h0s0,0,0,0h0s0,0,0,0h0s0,0,0,0h0s0,0,0,0h0s0,0,0,0c0,0,0,0,0,0h0s0,0,0,0h0s0,0,0,0h0s0,0,0,0h0s0,0,0,0h0s0,0,0,0h0s0,0,0,0h0s0,0,0,0h0s0,0,0,0h0s0,0,0,0h0s0,0,0,0h0s0,0,0,0h0s0,0,0,0c0,0,0,0,.1,0h0s0,0,0,0h0s0,0,0,0h0s0,0,0,0c0,0,0,0,0,0h0s0,0,0,0h0s0,0,0,0h0c0,0,.1,0,.2,0h0c.4,0,.8-.2,1.4-.2,1.2-2.2,2.4-4.5,3.4-6.9l.3-.6-.4-.5c-4.8-6.2-11.9-9.8-19.5-11.5-2.7-.6-5.4-1-8.2-1.1-1.1,0-2.3,0-3.5,0h-1c0,0,0,1,0,1-.4,3.9-.5,7.8-.2,11.7,1-1.4,1.9-2.1,1.9-2.1-3.8,5.4-2.3,11.2.1,16.9.1.3.2.5.2,1.1,0,1.3,1,2.1,2.3,2.3,0,0,2.8,1.7,6.5,2.5h0s-2.7.2-5.5-1.1c.9,1.6,1.9,3.1,3,4.5.6.8,1.4,1.7,2.1,2.4l.7.6.7-.5c1.8-1.2,3.4-2.5,5-3.9.3.3.6.6.9.9.7.5,1.4,1,2.2,1.3,1.9.8,4.1.9,5.9.1,1,.2,2,.2,2.9,0,1.1-.1,2.2-.5,3.1-1.1.4-.3.9-.6,1.2-.9Z"/>
    <g>
      <path class="st1" d="M55.4,18.1l-1.6-2.1h-8.2l-.9,4h.3l-1,4.3-.6.8.3.7-1,4.2h-.3l-.9,4h8.1l2.6-2.2,1.4-5.9-.3-.8.7-.9,1.4-6.1ZM48.8,30h-2l.7-3h2l-.7,3ZM50.4,23h-2l.5-2.3-1.3-.7h3.5l-.7,3.1Z"/>
      <path class="st1" d="M67.2,17.9l-1.6-2.1h-5.9l-2.5,2.1-1.4,6.2-.7.8.3.8-1.4,6,1.7,2.2h5.6l2.7-2.2,1.4-6,.7-.8-.3-.8,1.4-6.2ZM60.6,29.3l-.7.6h-.9l-.4-.6,2-8.7-1.3-.8h2.8l.5.7-2,8.8Z"/>
      <path class="st1" d="M79.4,17.9l-1.6-2.1h-8.2l-.9,4h.3l-1,4.3-.6.8.3.7-1,4.2h-.3l-.9,4h8.1l2.7-2.2,1.4-6,.6-.7-.3-.8,1.4-6.2ZM72.7,29.9h-2l2.1-9.2-1.3-.8h3.5l-2.3,10Z"/>
      <path class="st1" d="M87.8,15.8l-.9,4h.4l-1.7,1.9-.4-1-1.5-.9h1.6l.9-4h-4.6l-.9,4h.2l2,5v.4c0,0-.8.8-.8.8l.3.8-.7,3.1h-.3l-.9,4h4.5l.9-4h-.3l.7-3.1.7-.8-.3-.8v-.3c0,0,4.4-5,4.4-5h.3l.9-4h-4.6Z"/>
      <path class="st1" d="M108.7,18.1l-1.6-2.1h-8.2l-.9,4h.3l-1,4.3-.6.8.3.7-1,4.2h-.3l-.9,4h8.1l2.6-2.2,1.4-5.9-.3-.8.7-.9,1.4-6.1ZM102,30h-2l.7-3h2l-.7,3ZM103.6,23h-2l.5-2.3-1.3-.7h3.5l-.7,3.1Z"/>
      <path class="st1" d="M116.6,15.8l-.9,4h.4l-1.7,1.9-.4-1-1.5-.9h1.6l.9-4h-4.6l-.9,4h.2l2,5v.4c0,0-.8.8-.8.8l.3.8-.7,3.1h-.3l-.9,4h4.5l.9-4h-.3l.7-3.1.7-.8-.3-.8v-.3c0,0,4.4-5,4.4-5h.3l.9-4h-4.6Z"/>
      <path class="st1" d="M137.9,18l-1.7-2.2h-6l-2.6,2.2-1.4,6.2-.7.7.3.8-1,4.3h-.3l-.9,3.9h4.7l.9-3.9h-.3l.7-3h2.1l-.7,3h-.2l-.9,3.9h4.6l.9-3.9h-.2l1-4.2.6-.8-.3-.8,1.4-6.1ZM132.6,23h-2.1l.5-2.3-1.3-.8h3.6l-.7,3.1Z"/>
      <path class="st1" d="M144.3,24.3l-.9,4h.3l-.3,1.2-.6.5h-3l1.6-.7.8-3.4.7-.8-.3-.8,1-4.3h.3l.9-4h-4.6l-.9,4h.3l-1,4.3-.6.7.3.8-1.9,8.2h7.9l2.6-2.1.8-3.6h.3l.9-4h-4.5Z"/>
      <path class="st1" d="M160,15.8h-5.8l-2.5,2.1-1.1,4.8,2.3,3v.9s.9.2.9.2l1.4,1.9v.5c-.1,0,1.2.7,1.2.7h-3l-.4-.5.3-1.1h-3.6l-.3-.2-.9,3.7,1.6,2.1h5.8l2.5-2.1,1.1-4.7-2.3-3v-.9s-.9-.2-.9-.2l-1.4-1.9v-.5c.1,0-1.2-.7-1.2-.7h3l.4.5-.3,1.1h3.5l.4.2.9-3.7-1.6-2.1Z"/>
    </g>
    <text class="st0" transform="translate(36.8 42.5) scale(1.3 1) skewX(-10.4)"><tspan x="0" y="0">ONLINE COACHING AND NUTRITION GUIDE</tspan></text>
    <path class="st1" d="M163.3,15.6l-1.1-1.2-1.2-1.3H43.5l-.3,1.3-4.7,20.8-.3,1.3h118.9l1.4-1.3.4-.3,1.7-1.5.5-2.2,2.8-12.6.4-1.6-1.1-1.2ZM159.5,32.6l-2.8,2.6H39.9l4.7-20.8h115.8l2.6,2.8h0s-3.4,15.4-3.4,15.4Z"/>
  </g>
  <g class="st4">
    <g>
      <path class="st1" d="M24,11.2l-2-2.7h-10.6l-1.2,5.1h.4l-1.3,5.5-.8,1,.4,1-1.3,5.5h-.4l-1.2,5.1h10.5l3.4-2.8,1.8-7.7-.4-1.1.9-1.2,1.8-7.8ZM15.3,26.6h-2.6l.9-3.9h2.6l-.9,3.9ZM17.4,17.6h-2.6l.7-3-1.7-.9h4.5l-.9,3.9Z"/>
      <path class="st1" d="M39.2,10.9l-2-2.7h-7.6l-3.3,2.7-1.8,8-.9,1,.4,1-1.8,7.8,2.1,2.8h7.3l3.4-2.8,1.8-7.8.9-1-.4-1,1.8-8ZM30.6,25.7l-.9.7h-1.2l-.5-.7,2.6-11.3-1.7-1h3.7l.7.9-2.6,11.3Z"/>
      <path class="st1" d="M55,11l-2.1-2.7h-10.6l-1.2,5.1h.4l-1.3,5.5-.8,1,.4,1-1.3,5.4h-.4l-1.2,5.1h10.5l3.5-2.8,1.8-7.8.8-1-.4-1,1.8-8ZM46.3,26.5h-2.6l2.8-11.9-1.7-1h4.5l-3,12.9Z"/>
      <path class="st1" d="M65.8,8.3l-1.2,5.1h.5l-2.1,2.5-.5-1.3-2-1.2h2.1l1.2-5.1h-5.9l-1.2,5.1h.3l2.6,6.4v.5c-.1,0-1,1-1,1l.4,1-.9,4h-.3l-1.2,5.1h5.9l1.2-5.1h-.4l.9-4,.9-1-.4-1.1v-.4c0,0,5.6-6.4,5.6-6.4h.3l1.2-5.1h-5.9Z"/>
      <path class="st1" d="M92.8,11.2l-2-2.7h-10.6l-1.2,5.1h.4l-1.3,5.5-.8,1,.4,1-1.3,5.5h-.4l-1.2,5.1h10.5l3.4-2.8,1.8-7.7-.4-1.1.9-1.2,1.8-7.8ZM84.1,26.6h-2.6l.9-3.9h2.6l-.9,3.9ZM86.2,17.6h-2.6l.7-3-1.7-.9h4.5l-.9,3.9Z"/>
      <path class="st1" d="M103,8.3l-1.2,5.1h.5l-2.1,2.5-.5-1.3-2-1.2h2.1l1.2-5.1h-5.9l-1.2,5.1h.3l2.6,6.4v.5c-.1,0-1,1-1,1l.4,1-.9,4h-.3l-1.2,5.1h5.9l1.2-5.1h-.4l.9-4,.9-1-.4-1.1v-.4c0,0,5.6-6.4,5.6-6.4h.3l1.2-5.1h-5.9Z"/>
      <path class="st1" d="M130.5,11.2l-2.1-2.8h-7.8l-3.4,2.8-1.8,8-.8.9.4,1-1.3,5.5h-.4l-1.2,5h6l1.2-5h-.4l.9-3.9h2.7l-.9,3.9h-.3l-1.2,5h6l1.2-5h-.3l1.3-5.4.8-1.1-.3-1,1.8-7.9ZM123.7,17.5h-2.7l.7-3-1.7-1h4.6l-.9,4Z"/>
      <path class="st1" d="M138.9,19.2l-1.2,5.1h.4l-.4,1.6-.7.6h-3.9l2.1-1,1-4.4.9-1-.4-1,1.3-5.5h.4l1.2-5.1h-5.9l-1.2,5.1h.4l-1.3,5.5-.8,1,.4,1-2.4,10.6h10.2l3.3-2.7,1.1-4.7h.4l1.2-5.1h-5.9Z"/>
      <path class="st1" d="M159.1,8.3h-7.5l-3.3,2.7-1.4,6.2,3,3.9v1.1s1.1.3,1.1.3l1.8,2.4v.6c-.1,0,1.5,1,1.5,1h-3.9l-.5-.6.3-1.5h-4.6l-.4-.3-1.1,4.8,2,2.7h7.5l3.3-2.7,1.4-6.1-3-3.9v-1.1s-1.1-.3-1.1-.3l-1.8-2.4v-.6c.1,0-1.5-.9-1.5-.9h3.9l.5.6-.3,1.5h4.5l.6.3,1.1-4.8-2-2.7Z"/>
    </g>
    <text class="st3" transform="translate(-.2 42.8) scale(1.3 1) skewX(-10.4)"><tspan x="0" y="0">ONLINE COACHING AND NUTRITION GUIDE</tspan></text>
    <path class="st1" d="M163.5,8l-1.5-1.6-1.5-1.7H8.6l-.4,1.7-6,26.9-.4,1.7h153.7l1.9-1.7.5-.4,2.2-2,.6-2.9,3.7-16.4.5-2-1.4-1.5ZM158.6,29.9l-3.7,3.3H3.9L9.9,6.4h149.8l3.3,3.6h0s-4.5,19.9-4.5,19.9Z"/>
  </g>
  <g class="st4">
    <g>
      <path class="st1" d="M23.4,16.4l-2-2.7h-10.6l-1.2,5.1h.4l-1.3,5.5-.8,1,.4,1-1.3,5.5h-.4l-1.2,5.1h10.5l3.4-2.8,1.8-7.7-.4-1.1.9-1.2,1.8-7.8ZM14.7,31.8h-2.6l.9-3.9h2.6l-.9,3.9ZM16.8,22.8h-2.6l.7-3-1.7-.9h4.5l-.9,3.9Z"/>
      <path class="st1" d="M38.6,16.1l-2-2.7h-7.6l-3.3,2.7-1.8,8-.9,1,.4,1-1.8,7.8,2.1,2.8h7.3l3.4-2.8,1.8-7.8.9-1-.4-1,1.8-8ZM30,30.8l-.9.7h-1.2l-.5-.7,2.6-11.3-1.7-1h3.7l.7.9-2.6,11.3Z"/>
      <path class="st1" d="M54.4,16.2l-2.1-2.7h-10.6l-1.2,5.1h.4l-1.3,5.5-.8,1,.4,1-1.3,5.4h-.4l-1.2,5.1h10.5l3.5-2.8,1.8-7.8.8-1-.4-1,1.8-8ZM45.7,31.6h-2.6l2.8-11.9-1.7-1h4.5l-3,12.9Z"/>
      <path class="st1" d="M65.2,13.5l-1.2,5.1h.5l-2.1,2.5-.5-1.3-2-1.2h2.1l1.2-5.1h-5.9l-1.2,5.1h.3l2.6,6.4v.5c-.1,0-1,1-1,1l.4,1-.9,4h-.3l-1.2,5.1h5.9l1.2-5.1h-.4l.9-4,.9-1-.4-1.1v-.4c0,0,5.6-6.4,5.6-6.4h.3l1.2-5.1h-5.9Z"/>
      <path class="st1" d="M92.2,16.4l-2-2.7h-10.6l-1.2,5.1h.4l-1.3,5.5-.8,1,.4,1-1.3,5.5h-.4l-1.2,5.1h10.5l3.4-2.8,1.8-7.7-.4-1.1.9-1.2,1.8-7.8ZM83.5,31.8h-2.6l.9-3.9h2.6l-.9,3.9ZM85.6,22.8h-2.6l.7-3-1.7-.9h4.5l-.9,3.9Z"/>
      <path class="st1" d="M102.5,13.5l-1.2,5.1h.5l-2.1,2.5-.5-1.3-2-1.2h2.1l1.2-5.1h-5.9l-1.2,5.1h.3l2.6,6.4v.5c-.1,0-1,1-1,1l.4,1-.9,4h-.3l-1.2,5.1h5.9l1.2-5.1h-.4l.9-4,.9-1-.4-1.1v-.4c0,0,5.6-6.4,5.6-6.4h.3l1.2-5.1h-5.9Z"/>
      <path class="st1" d="M129.9,16.3l-2.1-2.8h-7.8l-3.4,2.8-1.8,8-.8.9.4,1-1.3,5.5h-.4l-1.2,5h6l1.2-5h-.4l.9-3.9h2.7l-.9,3.9h-.3l-1.2,5h6l1.2-5h-.3l1.3-5.4.8-1.1-.3-1,1.8-7.9ZM123.1,22.7h-2.7l.7-3-1.7-1h4.6l-.9,4Z"/>
      <path class="st1" d="M138.3,24.4l-1.2,5.1h.4l-.4,1.6-.7.6h-3.9l2.1-1,1-4.4.9-1-.4-1,1.3-5.5h.4l1.2-5.1h-5.9l-1.2,5.1h.4l-1.3,5.5-.8,1,.4,1-2.4,10.6h10.2l3.3-2.7,1.1-4.7h.4l1.2-5.1h-5.9Z"/>
      <path class="st1" d="M158.5,13.5h-7.5l-3.3,2.7-1.4,6.2,3,3.9v1.1s1.1.3,1.1.3l1.8,2.4v.6c-.1,0,1.5,1,1.5,1h-3.9l-.5-.6.3-1.5h-4.6l-.4-.3-1.1,4.8,2,2.7h7.5l3.3-2.7,1.4-6.1-3-3.9v-1.1s-1.1-.3-1.1-.3l-1.8-2.4v-.6c.1,0-1.5-.9-1.5-.9h3.9l.5.6-.3,1.5h4.5l.6.3,1.1-4.8-2-2.7Z"/>
    </g>
    <path class="st1" d="M162.9,13.2l-1.5-1.6-1.5-1.7H8l-.4,1.7L1.6,38.4l-.4,1.7h153.7l1.9-1.7.5-.4,2.2-2,.6-2.9,3.7-16.4.5-2-1.4-1.5ZM158,35.1l-3.7,3.3H3.3l6-26.9h149.8l3.3,3.6h0s-4.5,19.9-4.5,19.9Z"/>
  </g>
</svg>