<?xml version="1.0" encoding="UTF-8"?>
<svg id="Layer_1" xmlns="http://www.w3.org/2000/svg" version="1.1" viewBox="0 0 50 50">
  <!-- Generator: Adobe Illustrator 30.1.0, SVG Export Plug-In . SVG Version: 2.1.1 Build 136)  -->
  <defs>
    <style>
      .st0 {
        fill: #fff;
        fill-rule: evenodd;
      }

      .st1 {
        fill: #134e2e;
      }
    </style>
  </defs>
  <circle class="st1" cx="25" cy="25" r="25"/>
  <path class="st0" d="M29.9,32.3c.3-.6.1-1.4-.5-1.7-.1,0-.3-.1-.4-.1-.4,0-.9.1-1.2.5h0c.3-.6.8-.9,1.3-.9.3,0,.7,0,.9.3.5.4.7,1.2.5,1.8s-1.4,1.2-2.2.7h-.1c.6.2,1.3,0,1.6-.6M34.2,27.6c-.3,0-.7-.1-1-.1-.2-.1-.4-.3-.6-.4.5,0,1.1,0,1.7,0,0,0,0,0,0,0,2.4.6,3.9,3.1,3.3,5.6-.2.8-.6,1.5-1.2,2.1.4-.5.8-1.1.9-1.8.6-2.3-.8-4.7-3.1-5.4,0,0,0,0-.1,0ZM33.7,29.9c-.5-1.2-1.6-2.3-3.4-2.6-.8-.1-1.7-.1-2.7.1.9-.5,1.8-.7,2.7-.7,1.9,0,3.4,1.4,4,3,.6,1.5.4,3.3-.8,4.8-.3.4-.7.8-1.2,1.1.8-.8,1.4-1.9,1.6-3,0-.1,0-.3,0-.4.1-.8,0-1.6-.3-2.4ZM23.8,23.6c.9,1.9,2.4,2.2,3.4,2.9-.2.1-.4.2-.5.4-.3.3-.7.6-1,1,0,0,0,0,0,0,0,0,0,0,0,0-.2.3-.4.7-.6,1h0c-.9-.8-1.6-1.9-1.7-3.6.4.8,1.2,1.6,1.8,2-.9-1.6-1.2-2.8-1.3-3.7ZM18.8,27.6c.5,0,.5,0,2.1.8,1.1.6,2.5,1.5,3.5,2.3,0,.5-.1,1.1,0,1.6-1-.3-2-.7-2.8-1.2,0,0,.9,1.2,2.9,2.2,0,0-3.3-.2-5.2-1.4-1.6-1.1-2.7-2.8-1.8-3.9,0,0,0,1.2,2.4,3.1,0,0-2.4-3.4-1-3.5ZM15.7,19.6c.8.7,1.2,1.5,1.3,2.4,0,.7,0,1.5-.3,2.3,0,0,0-1.6-.8-2.7,0,0,.3,2.9,0,4.4-.2,1.5-.7,1.4-1,.2-.3-1.2-.9-4.9.6-6.6ZM32.1,19.6s0,0,0,0c0,0,0,0,0,0h0c.5,1.8.7,3.8-.9,4.5-1.4.6-3.9.8-5.9-.9,0,0,2.4.5,4-.3,0,0-3.6.1-5.6-1.7h0c.8-.6,1.3-1.6,1.4-2.8-.8,1.3-2.7,3.3-5,3.5.9.2,1.7.2,2.4,0,.3,1.7,0,4-2,4.9,1.6-1.6,1-3.8,1-3.8-.4,2.6-1.7,3.2-2.3,3.3-.6,0-1-.6-1.3-1.5h0c-.4-1.1-.4-2.4,0-3,.4.2,1,.5,1.8.6h0c-3.2-1.3-3.9-5.3-1.7-7.6-.7,1.3.1,3.3.1,3.3-.3-3.2,3.6-5.9,8.4-3.1,0,0-1.9.7-2.2,2.7,1.6-2.7,5.3-2.6,6.9-.2-.8-.3-2.2-.6-3.7,0,1.6-.2,4,.3,4.6,2h0ZM37.1,35.9c.9-.8,1.5-1.8,1.7-2.9.8-3.1-1.1-6.2-4.2-7-.9-.2-1.8-.2-2.6,0h0s0,0,0,0h0s0,0,0,0h0s0,0,0,0h0s0,0,0,0h0s0,0,0,0h0s0,0,0,0h0s0,0,0,0h0s0,0,0,0h0s0,0,0,0h0s0,0,0,0h0s0,0,0,0h0s0,0,0,0h0s0,0,0,0h0s0,0,0,0h0s0,0,0,0h0s0,0,0,0h0s0,0,0,0h0s0,0,0,0h0s0,0,0,0h0s0,0,0,0h0s0,0,0,0h0s0,0,0,0h0s0,0,0,0h0s0,0,0,0h0s0,0,0,0h0s0,0,0,0h0s0,0,0,0c0,0,0,0,0,0h0s0,0,0,0h0s0,0,0,0h0s0,0,0,0h0s0,0,0,0h0s0,0,0,0h0s0,0,0,0h0s0,0,0,0h0s0,0,0,0h0s0,0,0,0h0s0,0,0,0h0s0,0,0,0h0s0,0,0,0c0,0,0,0,0,0h0s0,0,0,0h0s0,0,0,0h0s0,0,0,0c0,0,0,0,0,0h0s0,0,0,0h0s0,0,0,0h0s0,0,.1,0h0c.3,0,.6-.1,1-.2.9-1.5,1.6-3.1,2.4-4.8l.2-.4-.3-.4c-3.3-4.3-8.2-6.8-13.5-7.9-1.9-.4-3.8-.7-5.6-.8-.8,0-1.6,0-2.4,0h-.7s0,.7,0,.7c-.3,2.7-.3,5.4-.1,8.1.7-.9,1.3-1.4,1.3-1.4-2.6,3.8-1.6,7.7,0,11.7,0,.2.1.4.2.8,0,.9.7,1.4,1.6,1.6,0,0,1.9,1.2,4.5,1.7h0s-1.8.1-3.8-.7c.6,1.1,1.3,2.1,2,3.1.4.6,1,1.2,1.5,1.7l.5.4.5-.4c1.2-.9,2.4-1.8,3.4-2.7.2.2.4.4.6.6.5.4,1,.7,1.5.9,1.3.5,2.8.7,4.1,0,.7.1,1.4.2,2,0,.8,0,1.5-.4,2.2-.8.3-.2.6-.4.8-.7Z"/>
</svg>